<?xml version="1.0" encoding="utf-8"?>
<!-- Svg Vector Icons : http://www.onlinewebfonts.com/icon -->
<!DOCTYPE svg PUBLIC "-//W3C//DTD SVG 1.1//EN" "http://www.w3.org/Graphics/SVG/1.1/DTD/svg11.dtd">
<svg version="1.1" xmlns="http://www.w3.org/2000/svg" xmlns:xlink="http://www.w3.org/1999/xlink" x="0px" y="0px" viewBox="0 0 1000 1000" enable-background="new 0 0 1000 1000" xml:space="preserve" fill="#3AAF62">
<g><path d="M447,757.1l391.7-391.7c8.1-8.1,12.1-17.7,12.1-28.7c0-11.1-4-20.6-12.1-28.7l-65.1-65.1c-8.1-8.1-17.7-12.1-28.7-12.1s-20.6,4-28.7,12.1l-298,298L283.7,406.2c-8.1-8.1-17.7-12.1-28.7-12.1s-20.6,4-28.7,12.1l-65.1,65.1c-8.1,8.1-12.1,17.7-12.1,28.7s4,20.6,12.1,28.7l228.4,228.4c8.1,8.1,17.7,12.1,28.7,12.1C429.4,769.2,439,765.2,447,757.1z M990,193.8v612.5c0,50.6-18,93.9-53.9,129.8S856.9,990,806.3,990H193.8c-50.6,0-93.9-18-129.8-53.9C28,900.1,10,856.9,10,806.3V193.8c0-50.6,18-93.9,53.9-129.8C99.9,28,143.1,10,193.8,10h612.5c50.6,0,93.9,18,129.8,53.9C972,99.9,990,143.1,990,193.8z"/></g>
</svg>